# xmcd CD database file
#
# Track frame offsets:
#	150
#	14632
#	30662
#	49327
#	69255
#	92602
#	113090
#	130210
#	150650
#	170647
#	188947
#	207875
#	232237
#	254180
#	292565
#	313217
#
# Disc length: 4488 seconds
#
# Revision: 0
# Processed by: cddbd v1.5.2PL0 Copyright (c) Steve Scherf et al.
# Submitted via: CDex 1.70beta2
#
DISCID=e8118610
DTITLE=森進一 - 全曲集 Disc2
DYEAR=1998
DGENRE=歌謡曲
TTITLE0=東京物語
TTITLE1=新宿・港町
TTITLE2=恋月夜
TTITLE3=命あたえて
TTITLE4=それは恋
TTITLE5=冬のリヴィエラ
TTITLE6=人を恋うる歌
TTITLE7=北の蛍
TTITLE8=昭和流れうた
TTITLE9=ゆうすげの恋
TTITLE10=十六夜舟
TTITLE11=京都去りがたし
TTITLE12=指輪
TTITLE13=うさぎ
TTITLE14=わるいひと
TTITLE15=女心
EXTD=YEAR: 1998
EXTT0=
EXTT1=
EXTT2=
EXTT3=
EXTT4=
EXTT5=
EXTT6=
EXTT7=
EXTT8=
EXTT9=
EXTT10=
EXTT11=
EXTT12=
EXTT13=
EXTT14=
EXTT15=
PLAYORDER=
